<svg xmlns="http://www.w3.org/2000/svg" width="30" height="22" fill="none" viewBox="0 0 43 36">
  <g clip-path="url(#a)">
    <path fill="#51836D" d="m41.23 12.96-10.6-5.43a.597.597 0 0 0-.416-.046.54.54 0 0 0-.187.088.442.442 0 0 0-.128.145l-2.484 4.93 5.044 2.543c.144.07.264.17.347.292a.699.699 0 0 1 .128.4.7.7 0 0 1-.128.399.885.885 0 0 1-.347.291l-9.469 4.71-4.023 7.911a.182.182 0 0 0-.05.081.163.163 0 0 0 .001.092c.01.03.027.057.052.08.024.023.055.04.09.051a.255.255 0 0 0 .128.006c.043-.01.08-.03.11-.058l6.946-3.547 2.741 3.328c.06.077.142.14.238.183a.76.76 0 0 0 .31.068h6.581c.12 0 .238-.028.34-.081a.6.6 0 0 0 .24-.22.5.5 0 0 0-.031-.578l-4.46-5.778 9.03-4.616c1.024-.524 1.535-1.11 1.535-1.758v-1.727c0-.649-.511-1.236-1.537-1.759ZM23.393 6.525 1.674 18.078C.65 18.6.152 19.186.174 19.834v1.76c.026.648.538 1.224 1.538 1.725l10.747 5.244a.576.576 0 0 0 .426.034.527.527 0 0 0 .186-.098.43.43 0 0 0 .12-.155l2.413-4.929-5.118-2.45a.894.894 0 0 1-.326-.238.715.715 0 0 1-.162-.337.684.684 0 0 1 .079-.462.86.86 0 0 1 .372-.344l9.397-4.867 3.874-7.975a.164.164 0 0 0 .004-.116.193.193 0 0 0-.075-.097.246.246 0 0 0-.26-.008l.003.004Z"/>
  </g>
  <defs>
    <clipPath id="a">
      <path fill="#fff" d="M0 0h42.593v36H0z" transform="translate(.174)"/>
    </clipPath>
  </defs>
</svg>
