<svg xmlns="http://www.w3.org/2000/svg" width="30" height="20" fill="none" viewBox="0 0 33 27">
  <path fill="#51836D" d="M3.289 26.5c-.74 0-1.369-.219-1.887-.657-.518-.438-.777-.969-.776-1.593V21.4l7.1-5.325V26.5H3.288Zm6.211 0v-6h14.198v6H9.5Zm15.972 0V14.2l-7.587-5.7 5.369-4.012 8.43 6.337c.296.225.518.482.665.77.148.287.222.593.222.917V24.25c0 .625-.259 1.157-.777 1.595-.518.438-1.147.656-1.885.655h-4.437ZM.626 19.375v-6.863c0-.325.074-.637.222-.937.148-.3.37-.55.666-.75L14.824.85c.237-.2.51-.343.822-.43a3.475 3.475 0 0 1 1.906 0c.31.088.584.231.822.43l3.549 2.663L.626 19.375Z"/>
</svg>
