<svg xmlns="http://www.w3.org/2000/svg" width="24" height="24" fill="none" viewBox="0 0 24 24">
  <path fill="#56CB98" d="M21.8 0H4.2C2.99 0 2.011 1.125 2.011 2.5L2 17.5c0 1.375.99 2.5 2.2 2.5h17.6c1.21 0 2.2-1.125 2.2-2.5v-15c0-1.375-.99-2.5-2.2-2.5Zm-.44 5.313-7.777 5.525a1 1 0 0 1-1.166 0L4.64 5.313a.982.982 0 0 1-.284-.28 1.128 1.128 0 0 1-.164-.384 1.204 1.204 0 0 1 .113-.826c.067-.122.155-.227.259-.31a.881.881 0 0 1 .345-.168.825.825 0 0 1 .376 0 .88.88 0 0 1 .345.167L13 8.75l7.37-5.237a.88.88 0 0 1 .345-.168.825.825 0 0 1 .376 0 .881.881 0 0 1 .345.169c.104.082.192.187.26.309a1.205 1.205 0 0 1 .113.826c-.032.14-.088.27-.165.384a.981.981 0 0 1-.284.28Z"/>
</svg>
