<svg xmlns="http://www.w3.org/2000/svg" width="24" height="24" fill="none" viewBox="0 0 24 24">
  <g clip-path="url(#a)">
    <path fill="#56CB98" d="M16.375 9h7.563l-7.563-5.5V9ZM6.75 2h11L26 8v12c0 .53-.29 1.04-.805 1.414-.516.375-1.216.586-1.945.586H6.75c-.73 0-1.429-.21-1.945-.586C4.29 21.04 4 20.53 4 20V4c0-1.11 1.224-2 2.75-2Zm11 18v-1c0-1.33-3.671-2-5.5-2-1.829 0-5.5.67-5.5 2v1h11Zm-5.5-8c-.73 0-1.429.21-1.944.586C9.79 12.96 9.5 13.47 9.5 14c0 .53.29 1.04.806 1.414.515.375 1.215.586 1.944.586.73 0 1.429-.21 1.944-.586C14.71 15.04 15 14.53 15 14c0-.53-.29-1.04-.806-1.414C13.68 12.21 12.98 12 12.25 12Z"/>
  </g>
  <defs>
    <clipPath id="a">
      <path fill="#fff" d="M0 0h24v24H0z"/>
    </clipPath>
  </defs>
</svg>
